<svg xmlns="http://www.w3.org/2000/svg" xmlns:xlink="http://www.w3.org/1999/xlink" version="1.1" x="0px" y="0px" viewBox="0 0 512 640" style="enable-background:new 0 0 512 512;" xml:space="preserve"><g><path d="M211.014,86.986c0,24.806,20.181,44.987,44.986,44.987s44.986-20.182,44.986-44.987S280.806,42,256,42   S211.014,62.181,211.014,86.986z"/><path d="M312.035,355.963v-58.166l7.976-2.66c16.355-5.455,27.344-20.704,27.344-37.945v-22.56   c0-50.373-40.981-91.354-91.354-91.354s-91.354,40.981-91.354,91.354v22.56c0,17.241,10.988,32.49,27.344,37.945l7.976,2.66v58.222   c-64.189,5.594-128.898,22.784-128.898,55.644c0,18.34,19.699,33.083,58.551,43.819C163.49,464.845,208.374,470,256,470   s92.51-5.155,126.383-14.518c38.852-10.736,58.551-25.479,58.551-43.819C440.934,379.19,375.994,361.817,312.035,355.963z    M377.056,436.205C344.868,445.101,301.876,450,256,450s-88.868-4.899-121.056-13.795c-34.707-9.592-43.878-20.248-43.878-24.542   c0-3.6,6.387-11.941,30.324-20.376c20.118-7.089,47.701-12.394,78.605-15.188c0.648,27.011,22.806,48.787,49.969,48.787h12.07   c27.182,0,49.351-21.807,49.971-48.842c75.895,7.14,108.928,26.704,108.928,35.62C420.934,415.957,411.763,426.613,377.056,436.205   z"/></g><text x="0" y="527" fill="#000000" font-size="5px" font-weight="bold" font-family="'Helvetica Neue', Helvetica, Arial-Unicode, Arial, Sans-serif">Created by Sarah</text><text x="0" y="532" fill="#000000" font-size="5px" font-weight="bold" font-family="'Helvetica Neue', Helvetica, Arial-Unicode, Arial, Sans-serif">from the Noun Project</text></svg>